<?xml version="1.0" encoding="UTF-8"?>
<svg xmlns="http://www.w3.org/2000/svg" viewBox="0 0 16 16">
  <defs>
    <style>
      .c {
        fill: #fff;
      }
    </style>
  </defs>
  <g id="a" data-name="Layer 1">
    <circle cx="8" cy="8" r="8"/>
  </g>
  <g id="b" data-name="Layer 2">
    <g>
      <path class="c" d="m7.45,9.03l1.53.48c-.23.85-.62,1.49-1.17,1.9-.54.41-1.24.62-2.07.62-1.04,0-1.89-.35-2.56-1.06-.67-.71-1-1.68-1-2.91,0-1.3.34-2.31,1.01-3.03s1.55-1.08,2.65-1.08c.95,0,1.73.28,2.33.85.36.33.62.81.8,1.44l-1.56.37c-.09-.4-.29-.72-.58-.96s-.65-.35-1.07-.35c-.58,0-1.05.21-1.41.62-.36.42-.54,1.09-.54,2.02,0,.99.18,1.69.53,2.11.35.42.82.63,1.38.63.42,0,.78-.13,1.08-.4.3-.27.52-.69.65-1.26Z"/>
      <path class="c" d="m13.83,11.9h-1.5v-5.64c-.55.51-1.19.89-1.93,1.13v-1.36c.39-.13.82-.37,1.27-.73.46-.36.77-.77.94-1.25h1.21v7.84Z"/>
    </g>
  </g>
</svg>