<?xml version="1.0" encoding="UTF-8"?>
<svg xmlns="http://www.w3.org/2000/svg" viewBox="0 0 16 16">
  <defs>
    <style>
      .c {
        fill: #fff;
      }
    </style>
  </defs>
  <g id="a" data-name="Layer 1">
    <circle cx="8" cy="8" r="8"/>
  </g>
  <g id="b" data-name="Layer 2">
    <g>
      <path class="c" d="m6.83,9.03l1.53.48c-.23.85-.62,1.49-1.17,1.9-.54.41-1.24.62-2.07.62-1.04,0-1.89-.35-2.56-1.06s-1-1.68-1-2.91c0-1.3.34-2.31,1.01-3.03s1.55-1.08,2.65-1.08c.95,0,1.73.28,2.33.85.36.33.62.81.8,1.44l-1.56.37c-.09-.4-.29-.72-.58-.96s-.65-.35-1.07-.35c-.58,0-1.05.21-1.41.62s-.54,1.09-.54,2.02c0,.99.18,1.69.53,2.11s.82.63,1.38.63c.42,0,.78-.13,1.08-.4.3-.27.52-.68.65-1.26Z"/>
      <path class="c" d="m14.44,10.51v1.39h-5.25c.06-.53.23-1.02.51-1.49.28-.47.84-1.09,1.68-1.87.67-.63,1.09-1.05,1.24-1.28.21-.31.31-.61.31-.92,0-.33-.09-.59-.27-.77s-.43-.27-.74-.27-.56.09-.75.28c-.18.19-.29.5-.32.94l-1.49-.15c.09-.82.37-1.41.84-1.77s1.05-.54,1.76-.54c.77,0,1.38.21,1.82.62.44.42.66.93.66,1.55,0,.35-.06.69-.19,1-.13.32-.33.65-.6,1-.18.23-.51.56-.98,1-.47.43-.77.72-.9.86-.13.14-.23.28-.31.42h2.97Z"/>
    </g>
  </g>
</svg>